<?xml version="1.0" encoding="utf-8"?>
<!-- Generator: Adobe Illustrator 28.3.0, SVG Export Plug-In . SVG Version: 6.00 Build 0)  -->
<svg version="1.1" id="katman_1" xmlns="http://www.w3.org/2000/svg" xmlns:xlink="http://www.w3.org/1999/xlink" x="0px" y="0px"
	 viewBox="0 0 89 22" style="enable-background:new 0 0 89 22;" xml:space="preserve">
<style type="text/css">
	.st0{fill:#F5F5F5;}
</style>
<g>
	<path class="st0" d="M36.9,10.7c0.2,0.1,0.4,0.1,0.5,0.2c1.1,0.3,1.9,0.9,2.5,1.9c0.8,1.5,0.5,3.6-0.7,4.7
		c-0.7,0.7-1.6,1.1-2.6,1.2c-0.9,0.1-1.8,0.2-2.7,0.2c-2.1,0-4.2,0-6.3,0c-0.4,0-0.4,0-0.4-0.4c0-0.8-0.1-0.7,0.7-0.7
		c2.2,0,4.5,0,6.7,0c0.7,0,1.4-0.1,2-0.2c0.4-0.1,0.7-0.2,1.1-0.4c0.8-0.5,1.3-1.2,1.4-2.1c0-0.5,0-0.9-0.1-1.4
		c-0.2-0.8-0.7-1.4-1.4-1.7c-0.9-0.5-1.9-0.6-3-0.6c-2.3,0-4.6,0-6.9,0c-0.4,0-0.4,0-0.4-0.4c0-0.6,0-0.6,0.6-0.6c2.2,0,4.5,0,6.7,0
		c0.7,0,1.5-0.2,2.1-0.5c1.2-0.6,1.6-1.7,1.5-2.9c-0.1-1.5-1.1-2.3-2.5-2.6C35,4.1,34.3,4,33.5,4c-1.9,0-3.9,0-5.8,0
		c-0.4,0-0.4,0-0.4-0.4c0-0.7-0.1-0.6,0.6-0.6c2,0,3.9,0,5.9,0c0.8,0,1.7,0,2.5,0.3c1.1,0.3,2,0.8,2.7,1.8c1,1.5,0.8,4.2-1.4,5.3
		C37.4,10.5,37.2,10.6,36.9,10.7z"/>
	<path class="st0" d="M63.1,18.9c-0.4,0-0.7,0-1.1,0c-0.1,0-0.2-0.1-0.2-0.2c-1.2-1.6-2.4-3.3-3.5-4.9c-0.1-0.2-0.3-0.3-0.5-0.3
		c-1.8,0-3.5,0-5.3,0.1c-0.2,0-0.3,0-0.5,0c0,0.1,0,0.2,0,0.3c0,1.5,0,3.1,0,4.6c0,0.3,0,0.3-0.3,0.3c-0.2,0-0.4,0-0.6,0
		c-0.2,0-0.2-0.1-0.2-0.2c0-0.2,0-0.4,0-0.5c0-1.7,0-3.4,0-5.2c0-0.3,0-0.3,0.3-0.3c1.8,0,3.6,0,5.4,0c0.8,0,1.6-0.1,2.4-0.3
		c1.5-0.4,2.3-1.4,2.7-2.9c0.2-1,0.2-2-0.2-2.9C61,5.3,60,4.6,58.7,4.3c-1-0.3-2.1-0.3-3.2-0.3c-1.5,0-2.9,0-4.4,0
		c-0.3,0-0.3,0-0.3-0.3c0-0.7,0-0.7,0.7-0.7c1.9,0,3.8,0,5.6,0c1.4,0,2.6,0.4,3.7,1.1c1.2,0.9,1.9,2.1,2,3.6
		c0.2,1.6-0.2,3.1-1.4,4.3c-0.5,0.6-1.2,0.9-1.9,1.1c-0.4,0.1-0.4,0.2-0.2,0.5c1.2,1.6,2.4,3.3,3.5,4.9C63,18.7,63.1,18.8,63.1,18.9
		C63.2,18.9,63.1,18.9,63.1,18.9z"/>
	<path class="st0" d="M71,19.1c0.1-0.2,0.1-0.2,0.1-0.3c1.5-3.3,3.1-6.7,4.6-10c0.8-1.8,1.6-3.5,2.4-5.3C78.3,3.1,78.4,3,78.8,3
		c0.6,0,0.6,0,0.9,0.6c1.2,2.6,2.4,5.1,3.6,7.7c0.8,1.6,1.5,3.3,2.3,4.9c0.4,0.8,0.8,1.6,1.1,2.5c0.1,0.3,0.1,0.3-0.2,0.3
		c-0.2,0-0.4,0-0.6,0c-0.2,0-0.4-0.1-0.4-0.3c-1.3-2.8-2.5-5.6-3.8-8.3c-0.9-1.9-1.7-3.8-2.6-5.7c0-0.1-0.1-0.1-0.2-0.3
		c-0.1,0.1-0.1,0.2-0.2,0.3c-2.1,4.7-4.3,9.3-6.4,14c-0.1,0.2-0.2,0.3-0.4,0.3C71.6,19,71.3,19.1,71,19.1z"/>
	<path class="st0" d="M10.1,4.4c-0.2,0.5-0.5,1-0.7,1.5c-1.3,2.8-2.6,5.6-3.8,8.4c-0.7,1.5-1.3,2.9-2,4.4C3.5,18.9,3.3,19,3,19
		c-0.2,0-0.4,0-0.6,0c-0.3,0-0.3,0-0.2-0.3c0.5-1,0.9-2,1.4-2.9c1.5-3.3,3-6.5,4.5-9.8C8.6,5,9,4.1,9.4,3.2C9.5,3,9.6,2.9,9.8,3
		c0.1,0,0.2,0,0.3,0c0.3-0.1,0.5,0.1,0.6,0.4c1.4,2.9,2.8,5.9,4.1,8.8c1,2.1,2,4.3,3,6.4c0,0.1,0.1,0.1,0.1,0.2c0,0.1,0,0.2-0.1,0.2
		c-0.3,0-0.6,0-0.9,0c-0.1,0-0.2-0.1-0.3-0.2c-0.5-1.1-1-2.1-1.5-3.2c-1.3-2.9-2.7-5.9-4-8.8c-0.3-0.7-0.6-1.4-0.9-2.1
		C10.2,4.6,10.2,4.5,10.1,4.4z"/>
</g>
</svg>
